# xmcd
#
# Track frame offsets:
#	150
#	10927
#	22470
#	34683
#	56865
#	75405
#	100320
#	112962
#	127540
#	153330
#	166605
#
# Disc length: 2667 seconds
#
# Revision: 1
# Processed by: cddbd v1.5.2PL0 Copyright (c) Steve Scherf et al.
# Submitted via: audiograbber 1.83.01
#
DISCID=790a690b
DTITLE=Frida Selander - Be The Knight
DYEAR=2006
DGENRE=Blues/Pop/Grunge
TTITLE0=Always That Boy
TTITLE1=New York City Girls
TTITLE2=Rock Me Knock Me
TTITLE3=The Move
TTITLE4=Foxtrot Lady
TTITLE5=What You Got and What You Want
TTITLE6=Soulful Licks
TTITLE7=Make My Heart Blush
TTITLE8=Worn Out
TTITLE9=Your Waves Your Vibes
TTITLE10=Chocolate Kisses
EXTD=
EXTT0=
EXTT1=
EXTT2=
EXTT3=
EXTT4=
EXTT5=
EXTT6=
EXTT7=
EXTT8=
EXTT9=
EXTT10=
PLAYORDER=
